<svg xmlns="http://www.w3.org/2000/svg" xmlns:xlink="http://www.w3.org/1999/xlink" width="500" zoomAndPan="magnify" viewBox="0 0 375 374.999991" height="500" preserveAspectRatio="xMidYMid meet" version="1.0"><defs><g/><clipPath id="0dacb2d684"><path d="M 178 108 L 284.964844 108 L 284.964844 223 L 178 223 Z M 178 108 " clip-rule="nonzero"/></clipPath><clipPath id="39d876a2c0"><path d="M 146 174 L 258 174 L 258 284.25 L 146 284.25 Z M 146 174 " clip-rule="nonzero"/></clipPath><clipPath id="0e0b9d1481"><path d="M 155 226 L 224 226 L 224 284.25 L 155 284.25 Z M 155 226 " clip-rule="nonzero"/></clipPath><clipPath id="ce63d85ad0"><path d="M 80.214844 81 L 105 81 L 105 106 L 80.214844 106 Z M 80.214844 81 " clip-rule="nonzero"/></clipPath><clipPath id="f92f0e76a3"><path d="M 129 37.5 L 145 37.5 L 145 53 L 129 53 Z M 129 37.5 " clip-rule="nonzero"/></clipPath></defs><path fill="#f9ed32" d="M 187.707031 71.527344 C 188.585938 71.527344 189.457031 71.441406 190.320312 71.269531 C 191.183594 71.097656 192.023438 70.84375 192.835938 70.507812 C 193.648438 70.171875 194.417969 69.757812 195.148438 69.269531 C 195.882812 68.78125 196.558594 68.226562 197.179688 67.605469 C 197.800781 66.984375 198.359375 66.308594 198.847656 65.578125 C 199.335938 64.847656 199.75 64.078125 200.085938 63.265625 C 200.421875 62.453125 200.675781 61.617188 200.847656 60.757812 C 201.019531 59.894531 201.105469 59.023438 201.109375 58.144531 C 201.109375 57.265625 201.023438 56.394531 200.851562 55.535156 C 200.679688 54.671875 200.429688 53.835938 200.09375 53.023438 C 199.757812 52.210938 199.34375 51.441406 198.855469 50.707031 C 198.367188 49.976562 197.8125 49.300781 197.191406 48.679688 C 196.570312 48.058594 195.894531 47.5 195.164062 47.011719 C 194.433594 46.523438 193.664062 46.109375 192.851562 45.773438 C 192.039062 45.4375 191.199219 45.179688 190.339844 45.007812 C 189.476562 44.835938 188.605469 44.75 187.726562 44.75 C 186.847656 44.746094 185.976562 44.832031 185.113281 45.003906 C 184.25 45.171875 183.410156 45.425781 182.597656 45.761719 C 181.785156 46.09375 181.011719 46.507812 180.28125 46.992188 C 179.550781 47.480469 178.871094 48.035156 178.25 48.65625 C 177.625 49.273438 177.070312 49.949219 176.578125 50.679688 C 176.089844 51.410156 175.675781 52.179688 175.339844 52.992188 C 175 53.804688 174.746094 54.640625 174.570312 55.5 C 174.398438 56.363281 174.3125 57.230469 174.308594 58.109375 C 174.308594 58.992188 174.394531 59.863281 174.566406 60.726562 C 174.738281 61.589844 174.992188 62.425781 175.328125 63.238281 C 175.664062 64.050781 176.078125 64.824219 176.566406 65.554688 C 177.054688 66.289062 177.609375 66.964844 178.230469 67.585938 C 178.855469 68.210938 179.53125 68.765625 180.261719 69.257812 C 180.992188 69.746094 181.765625 70.160156 182.578125 70.496094 C 183.390625 70.835938 184.230469 71.089844 185.09375 71.261719 C 185.957031 71.4375 186.828125 71.523438 187.707031 71.527344 Z M 187.707031 71.527344 " fill-opacity="0.78" fill-rule="evenodd"/><path fill="#662d91" d="M 252.617188 81.847656 C 256.257812 86.066406 259.265625 90.695312 261.644531 95.730469 C 264.027344 100.769531 265.6875 106.03125 266.636719 111.519531 C 269.351562 127.390625 265.207031 142.085938 268.113281 151.960938 C 268.792969 154.175781 269.707031 156.289062 270.847656 158.308594 C 270.167969 158.703125 269.476562 159.078125 268.777344 159.433594 C 268.078125 159.789062 267.367188 160.121094 266.648438 160.4375 C 265.929688 160.753906 265.199219 161.046875 264.464844 161.320312 C 263.726562 161.589844 262.984375 161.84375 262.234375 162.074219 C 261.480469 162.304688 260.726562 162.511719 259.960938 162.699219 C 259.199219 162.886719 258.433594 163.050781 257.660156 163.195312 C 256.886719 163.335938 256.113281 163.457031 255.332031 163.554688 C 254.554688 163.65625 253.769531 163.730469 252.988281 163.785156 C 252.203125 163.839844 251.417969 163.871094 250.632812 163.878906 C 249.847656 163.886719 249.0625 163.875 248.277344 163.835938 C 247.496094 163.800781 246.710938 163.742188 245.929688 163.660156 C 245.148438 163.578125 244.371094 163.476562 243.59375 163.351562 C 242.820312 163.226562 242.050781 163.078125 241.28125 162.90625 C 240.515625 162.738281 239.753906 162.546875 239 162.332031 C 238.242188 162.117188 237.492188 161.882812 236.75 161.625 C 236.007812 161.371094 235.273438 161.09375 234.546875 160.792969 C 233.820312 160.496094 233.105469 160.175781 232.394531 159.835938 C 231.6875 159.496094 230.992188 159.136719 230.304688 158.757812 C 229.617188 158.378906 228.9375 157.980469 228.273438 157.5625 C 227.609375 157.140625 226.957031 156.707031 226.320312 156.25 C 225.679688 155.792969 225.054688 155.320312 224.441406 154.828125 C 223.828125 154.335938 223.230469 153.828125 222.648438 153.300781 C 222.066406 152.777344 221.496094 152.234375 220.945312 151.675781 C 220.394531 151.117188 219.859375 150.542969 219.339844 149.953125 C 218.820312 149.363281 218.320312 148.761719 217.835938 148.144531 C 217.351562 147.527344 216.882812 146.894531 216.4375 146.25 C 215.988281 145.605469 215.558594 144.949219 215.148438 144.28125 C 214.738281 143.609375 214.347656 142.929688 213.976562 142.238281 C 213.605469 141.546875 213.253906 140.84375 212.921875 140.132812 C 212.589844 139.421875 212.28125 138.699219 211.992188 137.972656 C 211.699219 137.242188 211.433594 136.503906 211.183594 135.761719 C 210.9375 135.015625 210.710938 134.265625 210.507812 133.507812 C 210.304688 132.75 210.121094 131.984375 209.960938 131.214844 C 209.800781 130.449219 209.660156 129.675781 209.546875 128.898438 C 209.429688 128.125 209.335938 127.34375 209.265625 126.5625 C 209.191406 125.78125 209.144531 125 209.117188 124.214844 C 209.089844 123.429688 209.085938 122.644531 209.105469 121.859375 C 209.125 121.078125 209.164062 120.292969 209.226562 119.511719 C 209.292969 118.726562 209.378906 117.949219 209.484375 117.171875 C 209.59375 116.394531 209.726562 115.621094 209.878906 114.851562 C 210.03125 114.082031 210.203125 113.316406 210.402344 112.554688 C 210.597656 111.796875 210.816406 111.042969 211.054688 110.296875 C 211.296875 109.546875 211.558594 108.808594 211.839844 108.074219 C 212.121094 107.34375 212.425781 106.621094 212.75 105.902344 C 213.074219 105.1875 213.417969 104.484375 213.78125 103.789062 C 214.144531 103.09375 214.527344 102.410156 214.933594 101.734375 C 215.335938 101.0625 215.757812 100.402344 216.199219 99.753906 C 216.640625 99.101562 217.101562 98.46875 217.582031 97.84375 C 218.058594 97.222656 218.554688 96.613281 219.066406 96.019531 C 219.578125 95.425781 220.109375 94.84375 220.65625 94.28125 C 221.203125 93.71875 221.765625 93.167969 222.339844 92.636719 C 222.917969 92.105469 223.511719 91.589844 224.117188 91.09375 C 224.726562 90.597656 225.347656 90.117188 225.980469 89.652344 C 226.617188 89.191406 227.265625 88.746094 227.925781 88.324219 C 228.585938 87.898438 229.257812 87.492188 229.941406 87.105469 C 230.625 86.71875 231.316406 86.351562 232.023438 86.003906 C 232.726562 85.660156 233.441406 85.332031 234.164062 85.027344 C 234.886719 84.71875 235.621094 84.433594 236.359375 84.171875 C 237.097656 83.90625 237.84375 83.664062 238.597656 83.445312 C 239.351562 83.222656 240.113281 83.023438 240.878906 82.84375 C 241.640625 82.667969 242.410156 82.511719 243.1875 82.378906 C 243.960938 82.246094 244.738281 82.132812 245.515625 82.042969 C 246.296875 81.957031 247.082031 81.890625 247.863281 81.84375 C 248.648438 81.800781 249.433594 81.777344 250.21875 81.78125 C 250.992188 81.78125 251.808594 81.804688 252.617188 81.847656 Z M 252.617188 81.847656 " fill-opacity="0.78" fill-rule="evenodd"/><g clip-path="url(#0dacb2d684)"><path fill="#92278f" d="M 267.433594 118.5 C 268.292969 131.648438 265.636719 143.554688 268.113281 151.996094 C 272.351562 166.414062 291.128906 179.476562 282.355469 186.898438 C 279.578125 189.121094 274.800781 189.265625 272 191.449219 C 267.539062 194.925781 270.589844 198.6875 270.984375 201.402344 C 271.171875 202.691406 270.003906 204.757812 266.144531 207.277344 C 269.058594 209.421875 268.792969 211.242188 267.753906 212.917969 C 266.332031 213.890625 264.871094 214.796875 263.367188 215.636719 C 261.867188 216.480469 260.328125 217.25 258.757812 217.953125 C 257.1875 218.652344 255.585938 219.285156 253.957031 219.839844 C 252.328125 220.398438 250.675781 220.882812 249.003906 221.289062 C 247.332031 221.699219 245.644531 222.03125 243.941406 222.285156 C 242.238281 222.542969 240.527344 222.71875 238.808594 222.820312 C 237.089844 222.921875 235.371094 222.945312 233.652344 222.890625 C 231.929688 222.835938 230.214844 222.707031 228.503906 222.496094 C 226.796875 222.289062 225.101562 222 223.417969 221.640625 C 221.734375 221.277344 220.070312 220.839844 218.425781 220.328125 C 216.785156 219.816406 215.167969 219.230469 213.578125 218.570312 C 211.984375 217.910156 210.429688 217.183594 208.902344 216.382812 C 207.378906 215.582031 205.894531 214.71875 204.449219 213.785156 C 203 212.851562 201.601562 211.855469 200.246094 210.792969 C 198.886719 209.734375 197.582031 208.613281 196.328125 207.4375 C 195.074219 206.257812 193.875 205.027344 192.730469 203.738281 C 191.589844 202.453125 190.503906 201.117188 189.484375 199.734375 C 188.460938 198.351562 187.503906 196.921875 186.609375 195.453125 C 185.714844 193.980469 184.890625 192.472656 184.132812 190.925781 C 183.378906 189.382812 182.691406 187.804688 182.078125 186.199219 C 181.464844 184.59375 180.921875 182.960938 180.457031 181.304688 C 179.988281 179.648438 179.597656 177.976562 179.285156 176.285156 C 178.96875 174.59375 178.730469 172.890625 178.570312 171.175781 C 178.410156 169.464844 178.324219 167.746094 178.320312 166.027344 C 178.3125 164.308594 178.386719 162.589844 178.535156 160.875 C 178.683594 159.164062 178.910156 157.457031 179.214844 155.765625 C 179.519531 154.070312 179.898438 152.394531 180.355469 150.738281 C 180.808594 149.078125 181.339844 147.441406 181.941406 145.832031 C 182.546875 144.21875 183.21875 142.640625 183.964844 141.089844 C 184.710938 139.539062 185.527344 138.023438 186.410156 136.546875 C 187.292969 135.070312 188.242188 133.636719 189.253906 132.246094 C 190.269531 130.855469 191.34375 129.511719 192.476562 128.21875 C 193.613281 126.925781 194.800781 125.683594 196.050781 124.5 C 197.296875 123.3125 198.59375 122.183594 199.941406 121.113281 C 201.292969 120.046875 202.683594 119.039062 204.125 118.097656 C 205.566406 117.152344 207.042969 116.277344 208.5625 115.46875 C 210.082031 114.65625 211.636719 113.917969 213.222656 113.25 C 214.808594 112.578125 216.421875 111.984375 218.0625 111.460938 C 219.699219 110.9375 221.359375 110.488281 223.042969 110.113281 C 224.722656 109.738281 226.417969 109.441406 228.125 109.222656 C 229.832031 109 231.546875 108.859375 233.265625 108.792969 C 234.988281 108.726562 236.707031 108.738281 238.425781 108.828125 C 240.144531 108.917969 241.855469 109.085938 243.5625 109.328125 C 245.265625 109.574219 246.957031 109.894531 248.628906 110.292969 C 250.304688 110.6875 251.960938 111.160156 253.59375 111.707031 C 255.226562 112.253906 256.828125 112.871094 258.40625 113.5625 C 259.984375 114.253906 261.523438 115.015625 263.03125 115.84375 C 264.539062 116.675781 266.007812 117.574219 267.433594 118.535156 Z M 267.433594 118.5 " fill-opacity="0.78" fill-rule="evenodd"/></g><g clip-path="url(#39d876a2c0)"><path fill="#007fc6" d="M 255.203125 244.640625 C 233.5 253.46875 204.449219 223.859375 200.539062 284.25 C 186.429688 274.992188 171.480469 267.390625 155.683594 261.441406 C 155.03125 260.484375 154.414062 259.507812 153.824219 258.511719 C 153.234375 257.519531 152.675781 256.507812 152.148438 255.476562 C 151.621094 254.445312 151.128906 253.402344 150.667969 252.339844 C 150.207031 251.28125 149.78125 250.207031 149.386719 249.117188 C 148.992188 248.03125 148.632812 246.933594 148.308594 245.824219 C 147.984375 244.710938 147.695312 243.59375 147.4375 242.464844 C 147.183594 241.335938 146.964844 240.203125 146.78125 239.0625 C 146.597656 237.917969 146.449219 236.773438 146.335938 235.621094 C 146.226562 234.472656 146.148438 233.316406 146.109375 232.164062 C 146.070312 231.007812 146.066406 229.851562 146.097656 228.695312 C 146.128906 227.539062 146.199219 226.386719 146.304688 225.234375 C 146.410156 224.082031 146.550781 222.933594 146.726562 221.792969 C 146.902344 220.648438 147.113281 219.511719 147.363281 218.382812 C 147.609375 217.253906 147.890625 216.132812 148.210938 215.019531 C 148.527344 213.910156 148.878906 212.808594 149.265625 211.71875 C 149.652344 210.628906 150.074219 209.550781 150.527344 208.488281 C 150.980469 207.425781 151.46875 206.375 151.988281 205.34375 C 152.507812 204.308594 153.058594 203.292969 153.640625 202.296875 C 154.226562 201.296875 154.839844 200.316406 155.484375 199.355469 C 156.128906 198.394531 156.800781 197.457031 157.503906 196.539062 C 158.207031 195.621094 158.941406 194.726562 159.699219 193.851562 C 160.457031 192.980469 161.246094 192.132812 162.058594 191.308594 C 162.871094 190.484375 163.707031 189.6875 164.570312 188.917969 C 165.429688 188.144531 166.316406 187.402344 167.226562 186.6875 C 168.136719 185.96875 169.066406 185.28125 170.015625 184.625 C 170.96875 183.96875 171.941406 183.339844 172.933594 182.742188 C 173.921875 182.144531 174.933594 181.582031 175.957031 181.046875 C 176.984375 180.511719 178.027344 180.011719 179.085938 179.542969 C 180.144531 179.074219 181.214844 178.640625 182.300781 178.238281 C 183.382812 177.835938 184.480469 177.46875 185.589844 177.132812 C 186.699219 176.800781 187.816406 176.503906 188.941406 176.238281 C 190.070312 175.976562 191.203125 175.746094 192.34375 175.554688 C 193.484375 175.363281 194.632812 175.207031 195.78125 175.085938 C 196.933594 174.964844 198.085938 174.878906 199.242188 174.828125 C 200.398438 174.78125 201.554688 174.769531 202.710938 174.792969 C 203.871094 174.816406 205.023438 174.875 206.179688 174.96875 C 207.332031 175.066406 208.480469 175.195312 209.625 175.363281 C 210.769531 175.53125 211.910156 175.734375 213.042969 175.972656 C 214.175781 176.210938 215.296875 176.484375 216.414062 176.792969 C 217.527344 177.101562 218.632812 177.445312 219.726562 177.824219 C 220.820312 178.203125 221.902344 178.613281 222.96875 179.058594 C 224.039062 179.503906 225.089844 179.980469 226.128906 180.492188 C 227.167969 181.003906 228.1875 181.546875 229.191406 182.121094 C 230.195312 182.695312 231.179688 183.304688 232.148438 183.9375 C 233.113281 184.574219 234.058594 185.242188 234.984375 185.9375 C 235.90625 186.632812 236.808594 187.355469 237.6875 188.109375 C 238.566406 188.859375 239.421875 189.640625 240.253906 190.445312 C 241.085938 191.25 241.886719 192.082031 242.667969 192.9375 C 243.445312 193.792969 244.195312 194.671875 244.921875 195.574219 C 245.644531 196.476562 246.339844 197.398438 247.003906 198.347656 C 247.667969 199.292969 248.304688 200.257812 248.910156 201.242188 C 249.515625 202.230469 250.089844 203.234375 250.632812 204.253906 C 251.171875 205.277344 251.683594 206.3125 252.160156 207.367188 C 252.636719 208.417969 253.082031 209.488281 253.492188 210.566406 C 253.902344 211.648438 254.28125 212.742188 254.621094 213.847656 C 254.964844 214.953125 255.273438 216.066406 255.542969 217.1875 C 255.816406 218.3125 256.054688 219.445312 256.253906 220.582031 C 256.457031 221.722656 256.621094 222.867188 256.753906 224.015625 C 256.882812 225.164062 256.976562 226.316406 257.035156 227.46875 C 257.09375 228.625 257.113281 229.78125 257.101562 230.9375 C 257.085938 232.09375 257.035156 233.246094 256.949219 234.402344 C 256.863281 235.554688 256.738281 236.703125 256.582031 237.847656 C 256.421875 238.996094 256.230469 240.132812 256 241.265625 C 255.769531 242.402344 255.503906 243.527344 255.203125 244.640625 Z M 255.203125 244.640625 " fill-opacity="0.78" fill-rule="evenodd"/></g><g clip-path="url(#0e0b9d1481)"><path fill="#01a6e6" d="M 223.34375 244.953125 C 211.878906 245.433594 202.628906 252.027344 200.539062 284.25 C 186.507812 275.046875 171.644531 267.476562 155.949219 261.535156 C 155.996094 259.578125 156.203125 257.636719 156.566406 255.710938 C 156.929688 253.785156 157.449219 251.902344 158.121094 250.0625 C 158.796875 248.222656 159.613281 246.449219 160.574219 244.742188 C 161.539062 243.035156 162.632812 241.417969 163.863281 239.890625 C 165.089844 238.363281 166.433594 236.949219 167.890625 235.640625 C 169.351562 234.332031 170.90625 233.152344 172.5625 232.097656 C 174.214844 231.042969 175.941406 230.132812 177.742188 229.359375 C 179.546875 228.589844 181.398438 227.96875 183.300781 227.5 C 185.207031 227.03125 187.132812 226.722656 189.089844 226.570312 C 191.042969 226.414062 192.996094 226.421875 194.949219 226.585938 C 196.90625 226.753906 198.832031 227.078125 200.730469 227.558594 C 202.632812 228.039062 204.480469 228.671875 206.277344 229.453125 C 208.074219 230.238281 209.796875 231.160156 211.441406 232.226562 C 213.089844 233.289062 214.636719 234.480469 216.085938 235.800781 C 217.539062 237.117188 218.871094 238.542969 220.089844 240.078125 C 221.308594 241.613281 222.390625 243.238281 223.34375 244.953125 Z M 223.34375 244.953125 " fill-opacity="0.78" fill-rule="evenodd"/></g><path fill="#2063b2" d="M 275.78125 189.601562 C 274.417969 189.996094 273.15625 190.601562 272 191.414062 C 267.539062 194.890625 270.589844 198.652344 270.984375 201.367188 C 271.171875 202.65625 270.003906 204.726562 266.144531 207.242188 C 270.605469 210.53125 267.605469 213.046875 265.808594 215.46875 C 257.464844 221.480469 269.074219 234.507812 255.308594 244.609375 C 241.410156 250.328125 224.511719 240.238281 213.097656 247.984375 C 212.917969 246.941406 212.769531 245.894531 212.652344 244.84375 C 212.535156 243.792969 212.453125 242.738281 212.402344 241.683594 C 212.351562 240.625 212.335938 239.570312 212.347656 238.511719 C 212.363281 237.453125 212.410156 236.398438 212.492188 235.34375 C 212.574219 234.289062 212.6875 233.238281 212.832031 232.191406 C 212.976562 231.144531 213.15625 230.101562 213.367188 229.066406 C 213.578125 228.03125 213.820312 227 214.09375 225.980469 C 214.367188 224.957031 214.675781 223.945312 215.011719 222.945312 C 215.347656 221.941406 215.714844 220.949219 216.117188 219.972656 C 216.515625 218.992188 216.941406 218.027344 217.402344 217.074219 C 217.859375 216.121094 218.347656 215.183594 218.863281 214.257812 C 219.382812 213.335938 219.925781 212.429688 220.5 211.542969 C 221.074219 210.652344 221.671875 209.78125 222.300781 208.929688 C 222.925781 208.078125 223.582031 207.246094 224.257812 206.4375 C 224.9375 205.625 225.640625 204.835938 226.371094 204.066406 C 227.097656 203.300781 227.847656 202.554688 228.621094 201.835938 C 229.394531 201.113281 230.191406 200.417969 231.007812 199.746094 C 231.828125 199.074219 232.664062 198.425781 233.519531 197.808594 C 234.378906 197.1875 235.253906 196.59375 236.148438 196.027344 C 237.042969 195.464844 237.953125 194.925781 238.882812 194.417969 C 239.808594 193.90625 240.75 193.425781 241.707031 192.976562 C 242.664062 192.527344 243.636719 192.105469 244.621094 191.714844 C 245.601562 191.324219 246.597656 190.964844 247.605469 190.636719 C 248.609375 190.304688 249.625 190.007812 250.648438 189.742188 C 251.671875 189.476562 252.703125 189.242188 253.742188 189.039062 C 254.78125 188.839844 255.828125 188.667969 256.875 188.53125 C 257.925781 188.394531 258.976562 188.289062 260.035156 188.214844 C 261.089844 188.144531 262.144531 188.105469 263.203125 188.097656 C 264.261719 188.089844 265.320312 188.117188 266.378906 188.175781 C 267.433594 188.234375 268.488281 188.328125 269.539062 188.453125 C 270.589844 188.574219 271.636719 188.730469 272.675781 188.921875 C 273.71875 189.109375 274.753906 189.332031 275.78125 189.585938 Z M 275.78125 189.601562 " fill-opacity="0.78" fill-rule="evenodd"/><path fill="#12bcbc" d="M 114.386719 190.246094 C 115.035156 190.246094 115.683594 190.214844 116.332031 190.152344 C 116.976562 190.085938 117.621094 189.992188 118.257812 189.867188 C 118.894531 189.738281 119.527344 189.582031 120.148438 189.394531 C 120.769531 189.207031 121.382812 188.988281 121.980469 188.738281 C 122.582031 188.492188 123.167969 188.214844 123.742188 187.90625 C 124.316406 187.601562 124.875 187.269531 125.414062 186.90625 C 125.953125 186.546875 126.476562 186.160156 126.980469 185.75 C 127.480469 185.335938 127.964844 184.902344 128.421875 184.441406 C 128.882812 183.984375 129.320312 183.503906 129.730469 183 C 130.144531 182.5 130.53125 181.976562 130.890625 181.4375 C 131.253906 180.898438 131.585938 180.339844 131.894531 179.769531 C 132.199219 179.195312 132.476562 178.609375 132.726562 178.007812 C 132.976562 177.410156 133.195312 176.796875 133.382812 176.175781 C 133.574219 175.554688 133.730469 174.925781 133.859375 174.289062 C 133.984375 173.652344 134.078125 173.007812 134.144531 172.363281 C 134.207031 171.714844 134.238281 171.070312 134.238281 170.417969 C 134.238281 169.769531 134.207031 169.121094 134.144531 168.476562 C 134.082031 167.828125 133.984375 167.1875 133.859375 166.550781 C 133.730469 165.914062 133.574219 165.285156 133.386719 164.660156 C 133.195312 164.039062 132.976562 163.429688 132.730469 162.828125 C 132.480469 162.230469 132.203125 161.640625 131.898438 161.070312 C 131.589844 160.496094 131.257812 159.941406 130.894531 159.398438 C 130.535156 158.859375 130.148438 158.339844 129.734375 157.835938 C 129.324219 157.335938 128.886719 156.855469 128.425781 156.394531 C 127.96875 155.933594 127.484375 155.5 126.984375 155.085938 C 126.480469 154.675781 125.960938 154.289062 125.417969 153.929688 C 124.878906 153.566406 124.320312 153.234375 123.75 152.925781 C 123.175781 152.621094 122.589844 152.34375 121.988281 152.09375 C 121.386719 151.847656 120.773438 151.628906 120.152344 151.441406 C 119.53125 151.25 118.902344 151.09375 118.265625 150.96875 C 117.625 150.839844 116.984375 150.746094 116.335938 150.683594 C 115.691406 150.617188 115.042969 150.585938 114.390625 150.585938 C 113.742188 150.585938 113.09375 150.617188 112.445312 150.683594 C 111.796875 150.746094 111.15625 150.839844 110.519531 150.96875 C 109.882812 151.09375 109.25 151.253906 108.628906 151.441406 C 108.007812 151.628906 107.394531 151.847656 106.796875 152.097656 C 106.195312 152.347656 105.609375 152.625 105.035156 152.929688 C 104.460938 153.238281 103.90625 153.570312 103.363281 153.929688 C 102.824219 154.292969 102.300781 154.679688 101.800781 155.089844 C 101.296875 155.503906 100.816406 155.9375 100.355469 156.398438 C 99.898438 156.859375 99.460938 157.339844 99.050781 157.839844 C 98.636719 158.34375 98.25 158.863281 97.890625 159.40625 C 97.527344 159.945312 97.195312 160.5 96.890625 161.074219 C 96.582031 161.648438 96.304688 162.234375 96.054688 162.835938 C 95.808594 163.433594 95.589844 164.046875 95.402344 164.667969 C 95.210938 165.289062 95.054688 165.917969 94.929688 166.554688 C 94.800781 167.191406 94.707031 167.835938 94.644531 168.480469 C 94.578125 169.128906 94.546875 169.773438 94.546875 170.425781 C 94.550781 171.074219 94.582031 171.722656 94.648438 172.367188 C 94.710938 173.011719 94.808594 173.652344 94.9375 174.289062 C 95.066406 174.925781 95.222656 175.554688 95.414062 176.171875 C 95.601562 176.792969 95.820312 177.402344 96.070312 178.003906 C 96.320312 178.601562 96.597656 179.1875 96.902344 179.761719 C 97.210938 180.332031 97.542969 180.886719 97.90625 181.425781 C 98.265625 181.964844 98.652344 182.484375 99.0625 182.988281 C 99.476562 183.488281 99.910156 183.96875 100.371094 184.429688 C 100.832031 184.886719 101.3125 185.320312 101.8125 185.734375 C 102.3125 186.144531 102.835938 186.53125 103.375 186.890625 C 103.914062 187.253906 104.46875 187.585938 105.042969 187.894531 C 105.617188 188.199219 106.203125 188.476562 106.800781 188.726562 C 107.402344 188.972656 108.011719 189.195312 108.632812 189.382812 C 109.253906 189.570312 109.882812 189.730469 110.519531 189.859375 C 111.15625 189.984375 111.796875 190.082031 112.441406 190.148438 C 113.089844 190.210938 113.734375 190.246094 114.386719 190.246094 Z M 114.386719 190.246094 " fill-opacity="0.78" fill-rule="evenodd"/><path fill="#00b9f1" d="M 155.949219 217.847656 C 156.542969 217.847656 157.136719 217.820312 157.726562 217.765625 C 158.316406 217.710938 158.902344 217.625 159.484375 217.511719 C 160.066406 217.394531 160.640625 217.253906 161.210938 217.082031 C 161.777344 216.914062 162.335938 216.714844 162.886719 216.488281 C 163.433594 216.261719 163.96875 216.011719 164.492188 215.734375 C 165.019531 215.457031 165.527344 215.152344 166.019531 214.824219 C 166.515625 214.496094 166.992188 214.144531 167.449219 213.769531 C 167.910156 213.394531 168.351562 213 168.769531 212.582031 C 169.191406 212.164062 169.589844 211.726562 169.96875 211.269531 C 170.34375 210.808594 170.699219 210.335938 171.03125 209.84375 C 171.359375 209.351562 171.664062 208.84375 171.945312 208.324219 C 172.226562 207.800781 172.480469 207.265625 172.710938 206.71875 C 172.9375 206.171875 173.140625 205.613281 173.3125 205.046875 C 173.484375 204.480469 173.628906 203.90625 173.746094 203.324219 C 173.863281 202.746094 173.953125 202.160156 174.011719 201.570312 C 174.070312 200.980469 174.101562 200.386719 174.101562 199.796875 C 174.105469 199.203125 174.074219 198.613281 174.019531 198.023438 C 173.960938 197.433594 173.875 196.847656 173.761719 196.265625 C 173.644531 195.683594 173.503906 195.109375 173.332031 194.542969 C 173.160156 193.972656 172.960938 193.414062 172.734375 192.867188 C 172.511719 192.320312 172.257812 191.785156 171.980469 191.261719 C 171.699219 190.738281 171.394531 190.230469 171.066406 189.738281 C 170.738281 189.242188 170.386719 188.765625 170.011719 188.308594 C 169.636719 187.851562 169.238281 187.410156 168.820312 186.992188 C 168.402344 186.570312 167.960938 186.171875 167.503906 185.796875 C 167.046875 185.417969 166.570312 185.066406 166.078125 184.738281 C 165.585938 184.40625 165.078125 184.101562 164.554688 183.820312 C 164.03125 183.542969 163.496094 183.289062 162.949219 183.058594 C 162.402344 182.832031 161.84375 182.632812 161.277344 182.460938 C 160.707031 182.289062 160.132812 182.144531 159.550781 182.027344 C 158.96875 181.910156 158.382812 181.824219 157.792969 181.765625 C 157.203125 181.707031 156.613281 181.675781 156.019531 181.675781 C 155.425781 181.675781 154.835938 181.703125 154.242188 181.761719 C 153.652344 181.816406 153.066406 181.90625 152.484375 182.019531 C 151.902344 182.136719 151.328125 182.277344 150.761719 182.449219 C 150.191406 182.621094 149.636719 182.820312 149.085938 183.046875 C 148.539062 183.273438 148.003906 183.527344 147.480469 183.804688 C 146.957031 184.085938 146.449219 184.386719 145.953125 184.71875 C 145.460938 185.046875 144.984375 185.398438 144.527344 185.773438 C 144.066406 186.148438 143.628906 186.546875 143.207031 186.964844 C 142.789062 187.386719 142.390625 187.824219 142.015625 188.28125 C 141.636719 188.738281 141.285156 189.214844 140.957031 189.707031 C 140.625 190.199219 140.320312 190.707031 140.039062 191.230469 C 139.761719 191.753906 139.507812 192.289062 139.28125 192.835938 C 139.054688 193.382812 138.855469 193.941406 138.679688 194.507812 C 138.507812 195.074219 138.363281 195.648438 138.25 196.230469 C 138.132812 196.8125 138.046875 197.398438 137.988281 197.988281 C 137.929688 198.578125 137.902344 199.167969 137.902344 199.761719 C 137.902344 200.351562 137.933594 200.941406 137.992188 201.53125 C 138.050781 202.117188 138.136719 202.703125 138.253906 203.28125 C 138.371094 203.859375 138.511719 204.433594 138.683594 205 C 138.855469 205.5625 139.054688 206.121094 139.28125 206.664062 C 139.507812 207.210938 139.761719 207.746094 140.039062 208.265625 C 140.320312 208.789062 140.621094 209.292969 140.953125 209.785156 C 141.28125 210.277344 141.632812 210.75 142.007812 211.207031 C 142.378906 211.664062 142.777344 212.105469 143.195312 212.523438 C 143.613281 212.941406 144.050781 213.335938 144.503906 213.714844 C 144.960938 214.089844 145.4375 214.441406 145.925781 214.769531 C 146.417969 215.101562 146.925781 215.40625 147.445312 215.683594 C 147.964844 215.964844 148.5 216.21875 149.042969 216.445312 C 149.589844 216.675781 150.144531 216.875 150.710938 217.050781 C 151.277344 217.222656 151.847656 217.367188 152.429688 217.484375 C 153.007812 217.601562 153.59375 217.691406 154.179688 217.753906 C 154.769531 217.8125 155.359375 217.84375 155.949219 217.847656 Z M 155.949219 217.847656 " fill-opacity="0.78" fill-rule="evenodd"/><path fill="#8dc63f" d="M 111.53125 141.988281 C 112.445312 141.988281 113.351562 141.902344 114.246094 141.722656 C 115.140625 141.542969 116.011719 141.28125 116.855469 140.933594 C 117.699219 140.582031 118.5 140.15625 119.257812 139.648438 C 120.019531 139.140625 120.722656 138.5625 121.367188 137.917969 C 122.011719 137.273438 122.589844 136.570312 123.097656 135.8125 C 123.601562 135.054688 124.03125 134.253906 124.378906 133.410156 C 124.730469 132.566406 124.992188 131.699219 125.171875 130.804688 C 125.351562 129.90625 125.4375 129.003906 125.4375 128.089844 C 125.4375 127.179688 125.347656 126.277344 125.171875 125.378906 C 124.992188 124.484375 124.726562 123.617188 124.378906 122.773438 C 124.027344 121.929688 123.601562 121.128906 123.09375 120.371094 C 122.585938 119.613281 122.007812 118.910156 121.363281 118.265625 C 120.714844 117.621094 120.011719 117.046875 119.253906 116.539062 C 118.496094 116.03125 117.691406 115.605469 116.847656 115.253906 C 116.003906 114.90625 115.136719 114.644531 114.238281 114.464844 C 113.34375 114.289062 112.441406 114.199219 111.527344 114.199219 C 110.613281 114.199219 109.707031 114.289062 108.8125 114.46875 C 107.917969 114.644531 107.046875 114.910156 106.203125 115.257812 C 105.359375 115.609375 104.558594 116.039062 103.800781 116.542969 C 103.042969 117.050781 102.339844 117.628906 101.695312 118.273438 C 101.046875 118.917969 100.472656 119.621094 99.964844 120.382812 C 99.457031 121.140625 99.03125 121.941406 98.679688 122.785156 C 98.332031 123.628906 98.070312 124.496094 97.890625 125.390625 C 97.714844 126.285156 97.625 127.191406 97.625 128.101562 C 97.628906 129.015625 97.71875 129.917969 97.898438 130.8125 C 98.078125 131.707031 98.339844 132.574219 98.691406 133.414062 C 99.042969 134.257812 99.46875 135.058594 99.976562 135.816406 C 100.484375 136.574219 101.0625 137.273438 101.707031 137.917969 C 102.351562 138.5625 103.054688 139.136719 103.8125 139.644531 C 104.570312 140.152344 105.371094 140.578125 106.214844 140.929688 C 107.058594 141.277344 107.925781 141.542969 108.820312 141.71875 C 109.714844 141.898438 110.621094 141.988281 111.53125 141.988281 Z M 111.53125 141.988281 " fill-opacity="0.78" fill-rule="evenodd"/><g clip-path="url(#ce63d85ad0)"><path fill="#ffd900" d="M 104.597656 93.570312 C 104.597656 94.359375 104.519531 95.144531 104.363281 95.917969 C 104.210938 96.691406 103.980469 97.445312 103.679688 98.175781 C 103.375 98.90625 103.007812 99.597656 102.566406 100.253906 C 102.128906 100.914062 101.628906 101.519531 101.070312 102.078125 C 100.511719 102.636719 99.902344 103.136719 99.246094 103.574219 C 98.585938 104.015625 97.894531 104.382812 97.164062 104.6875 C 96.433594 104.988281 95.679688 105.21875 94.902344 105.371094 C 94.128906 105.527344 93.34375 105.601562 92.554688 105.601562 C 91.765625 105.601562 90.980469 105.527344 90.207031 105.371094 C 89.429688 105.21875 88.675781 104.988281 87.945312 104.6875 C 87.214844 104.382812 86.523438 104.015625 85.863281 103.574219 C 85.207031 103.136719 84.597656 102.636719 84.039062 102.078125 C 83.480469 101.519531 82.980469 100.914062 82.542969 100.253906 C 82.101562 99.597656 81.730469 98.90625 81.429688 98.175781 C 81.128906 97.445312 80.898438 96.691406 80.746094 95.917969 C 80.589844 95.144531 80.511719 94.359375 80.511719 93.570312 C 80.511719 92.78125 80.589844 92 80.746094 91.222656 C 80.898438 90.449219 81.128906 89.695312 81.429688 88.964844 C 81.730469 88.238281 82.101562 87.542969 82.542969 86.886719 C 82.980469 86.230469 83.480469 85.621094 84.039062 85.0625 C 84.597656 84.503906 85.207031 84.003906 85.863281 83.566406 C 86.523438 83.128906 87.214844 82.757812 87.945312 82.453125 C 88.675781 82.152344 89.429688 81.925781 90.207031 81.769531 C 90.980469 81.617188 91.765625 81.539062 92.554688 81.539062 C 93.34375 81.539062 94.128906 81.617188 94.902344 81.769531 C 95.679688 81.925781 96.433594 82.152344 97.164062 82.453125 C 97.894531 82.757812 98.585938 83.128906 99.246094 83.566406 C 99.902344 84.003906 100.511719 84.503906 101.070312 85.0625 C 101.628906 85.621094 102.128906 86.230469 102.566406 86.886719 C 103.007812 87.542969 103.375 88.238281 103.679688 88.964844 C 103.980469 89.695312 104.210938 90.449219 104.363281 91.222656 C 104.519531 92 104.597656 92.78125 104.597656 93.570312 Z M 104.597656 93.570312 " fill-opacity="0.78" fill-rule="nonzero"/></g><path fill="#009444" d="M 117.996094 71.527344 C 118.734375 71.527344 119.464844 71.453125 120.1875 71.3125 C 120.914062 71.167969 121.617188 70.957031 122.300781 70.671875 C 122.980469 70.390625 123.628906 70.046875 124.242188 69.636719 C 124.859375 69.226562 125.425781 68.761719 125.949219 68.242188 C 126.46875 67.71875 126.9375 67.152344 127.347656 66.539062 C 127.757812 65.925781 128.105469 65.277344 128.386719 64.597656 C 128.671875 63.914062 128.882812 63.214844 129.027344 62.488281 C 129.171875 61.765625 129.246094 61.035156 129.246094 60.296875 C 129.246094 59.558594 129.175781 58.828125 129.03125 58.105469 C 128.886719 57.382812 128.675781 56.679688 128.390625 56 C 128.109375 55.316406 127.765625 54.667969 127.355469 54.054688 C 126.945312 53.441406 126.476562 52.875 125.957031 52.351562 C 125.433594 51.832031 124.867188 51.363281 124.253906 50.953125 C 123.640625 50.542969 122.992188 50.199219 122.308594 49.914062 C 121.628906 49.632812 120.925781 49.421875 120.199219 49.277344 C 119.476562 49.132812 118.746094 49.058594 118.007812 49.058594 C 117.269531 49.058594 116.539062 49.132812 115.8125 49.273438 C 115.089844 49.417969 114.386719 49.632812 113.703125 49.914062 C 113.023438 50.195312 112.375 50.542969 111.757812 50.953125 C 111.144531 51.359375 110.578125 51.828125 110.054688 52.347656 C 109.535156 52.871094 109.066406 53.4375 108.65625 54.050781 C 108.246094 54.664062 107.902344 55.3125 107.617188 55.992188 C 107.335938 56.675781 107.121094 57.378906 106.976562 58.101562 C 106.832031 58.824219 106.761719 59.554688 106.761719 60.292969 C 106.761719 61.03125 106.835938 61.757812 106.980469 62.480469 C 107.125 63.203125 107.339844 63.90625 107.621094 64.585938 C 107.902344 65.265625 108.25 65.914062 108.660156 66.527344 C 109.070312 67.140625 109.535156 67.707031 110.054688 68.226562 C 110.578125 68.75 111.144531 69.214844 111.757812 69.625 C 112.371094 70.035156 113.015625 70.378906 113.699219 70.664062 C 114.378906 70.945312 115.082031 71.160156 115.804688 71.304688 C 116.527344 71.449219 117.257812 71.523438 117.996094 71.527344 Z M 117.996094 71.527344 " fill-opacity="0.78" fill-rule="evenodd"/><path fill="#56ba48" d="M 121.8125 99.523438 C 122.300781 99.523438 122.78125 99.476562 123.261719 99.378906 C 123.738281 99.285156 124.203125 99.144531 124.652344 98.957031 C 125.105469 98.769531 125.53125 98.542969 125.9375 98.273438 C 126.34375 98 126.71875 97.695312 127.0625 97.347656 C 127.40625 97.003906 127.714844 96.628906 127.984375 96.226562 C 128.257812 95.820312 128.484375 95.390625 128.671875 94.941406 C 128.859375 94.492188 129 94.027344 129.09375 93.550781 C 129.191406 93.070312 129.238281 92.589844 129.238281 92.101562 C 129.238281 91.613281 129.191406 91.132812 129.09375 90.65625 C 129 90.175781 128.859375 89.714844 128.671875 89.261719 C 128.484375 88.8125 128.257812 88.386719 127.984375 87.980469 C 127.714844 87.574219 127.40625 87.199219 127.0625 86.855469 C 126.71875 86.511719 126.34375 86.203125 125.9375 85.933594 C 125.53125 85.664062 125.105469 85.433594 124.652344 85.246094 C 124.203125 85.0625 123.738281 84.921875 123.261719 84.824219 C 122.78125 84.730469 122.300781 84.683594 121.8125 84.683594 C 121.324219 84.683594 120.839844 84.730469 120.363281 84.824219 C 119.882812 84.921875 119.421875 85.0625 118.96875 85.246094 C 118.519531 85.433594 118.089844 85.664062 117.6875 85.933594 C 117.28125 86.203125 116.90625 86.511719 116.558594 86.855469 C 116.214844 87.199219 115.90625 87.574219 115.636719 87.980469 C 115.367188 88.386719 115.136719 88.8125 114.949219 89.261719 C 114.765625 89.714844 114.625 90.175781 114.527344 90.65625 C 114.433594 91.132812 114.386719 91.613281 114.386719 92.101562 C 114.386719 92.589844 114.433594 93.070312 114.53125 93.546875 C 114.625 94.027344 114.769531 94.488281 114.957031 94.9375 C 115.140625 95.390625 115.371094 95.816406 115.640625 96.222656 C 115.914062 96.625 116.222656 97 116.566406 97.34375 C 116.910156 97.6875 117.285156 97.996094 117.691406 98.265625 C 118.09375 98.539062 118.523438 98.765625 118.972656 98.953125 C 119.421875 99.140625 119.886719 99.28125 120.363281 99.378906 C 120.839844 99.472656 121.324219 99.519531 121.8125 99.523438 Z M 121.8125 99.523438 " fill-opacity="0.78" fill-rule="evenodd"/><g clip-path="url(#f92f0e76a3)"><path fill="#fbad17" d="M 137.300781 52.339844 C 137.785156 52.339844 138.269531 52.292969 138.75 52.199219 C 139.226562 52.101562 139.691406 51.960938 140.140625 51.773438 C 140.589844 51.589844 141.019531 51.359375 141.425781 51.089844 C 141.832031 50.820312 142.207031 50.511719 142.550781 50.167969 C 142.894531 49.820312 143.203125 49.449219 143.472656 49.042969 C 143.746094 48.636719 143.972656 48.210938 144.160156 47.757812 C 144.347656 47.308594 144.488281 46.84375 144.582031 46.367188 C 144.679688 45.890625 144.726562 45.40625 144.726562 44.921875 C 144.726562 44.433594 144.679688 43.949219 144.582031 43.472656 C 144.488281 42.996094 144.347656 42.53125 144.160156 42.082031 C 143.972656 41.628906 143.746094 41.203125 143.472656 40.796875 C 143.203125 40.390625 142.894531 40.019531 142.550781 39.671875 C 142.207031 39.328125 141.832031 39.019531 141.425781 38.75 C 141.019531 38.480469 140.589844 38.25 140.140625 38.066406 C 139.691406 37.878906 139.226562 37.738281 138.75 37.640625 C 138.269531 37.546875 137.785156 37.5 137.300781 37.5 C 136.8125 37.5 136.328125 37.546875 135.851562 37.640625 C 135.371094 37.738281 134.90625 37.878906 134.457031 38.066406 C 134.007812 38.25 133.578125 38.480469 133.171875 38.75 C 132.769531 39.019531 132.394531 39.328125 132.046875 39.671875 C 131.703125 40.019531 131.394531 40.390625 131.125 40.796875 C 130.855469 41.203125 130.625 41.628906 130.4375 42.082031 C 130.253906 42.53125 130.109375 42.996094 130.015625 43.472656 C 129.921875 43.949219 129.875 44.433594 129.875 44.921875 C 129.875 45.40625 129.921875 45.890625 130.019531 46.367188 C 130.113281 46.84375 130.257812 47.308594 130.441406 47.757812 C 130.628906 48.207031 130.859375 48.632812 131.128906 49.039062 C 131.402344 49.441406 131.707031 49.816406 132.054688 50.160156 C 132.398438 50.507812 132.773438 50.8125 133.179688 51.085938 C 133.582031 51.355469 134.011719 51.582031 134.460938 51.769531 C 134.910156 51.957031 135.375 52.097656 135.851562 52.195312 C 136.328125 52.289062 136.8125 52.339844 137.300781 52.339844 Z M 137.300781 52.339844 " fill-opacity="0.78" fill-rule="evenodd"/></g><path fill="#f15c22" d="M 91.6875 68.878906 C 92.054688 68.878906 92.421875 68.839844 92.78125 68.769531 C 93.144531 68.695312 93.492188 68.585938 93.832031 68.445312 C 94.171875 68.300781 94.496094 68.128906 94.800781 67.921875 C 95.109375 67.714844 95.390625 67.480469 95.652344 67.21875 C 95.910156 66.957031 96.140625 66.675781 96.34375 66.367188 C 96.550781 66.058594 96.722656 65.738281 96.859375 65.394531 C 97 65.054688 97.105469 64.703125 97.175781 64.34375 C 97.246094 63.980469 97.28125 63.617188 97.28125 63.246094 C 97.28125 62.878906 97.242188 62.511719 97.171875 62.152344 C 97.097656 61.792969 96.988281 61.441406 96.847656 61.101562 C 96.707031 60.761719 96.53125 60.4375 96.328125 60.132812 C 96.121094 59.828125 95.886719 59.542969 95.625 59.285156 C 95.363281 59.023438 95.082031 58.792969 94.773438 58.585938 C 94.464844 58.382812 94.144531 58.210938 93.800781 58.070312 C 93.460938 57.929688 93.109375 57.824219 92.746094 57.753906 C 92.386719 57.683594 92.019531 57.648438 91.652344 57.648438 C 91.285156 57.648438 90.917969 57.683594 90.558594 57.757812 C 90.195312 57.828125 89.84375 57.9375 89.503906 58.078125 C 89.164062 58.21875 88.839844 58.390625 88.535156 58.597656 C 88.226562 58.800781 87.945312 59.035156 87.683594 59.296875 C 87.421875 59.554688 87.191406 59.839844 86.984375 60.144531 C 86.78125 60.453125 86.609375 60.777344 86.464844 61.117188 C 86.324219 61.457031 86.21875 61.808594 86.148438 62.167969 C 86.074219 62.53125 86.039062 62.894531 86.039062 63.265625 C 86.039062 63.632812 86.078125 64 86.152344 64.363281 C 86.222656 64.722656 86.332031 65.074219 86.472656 65.417969 C 86.617188 65.757812 86.792969 66.082031 86.996094 66.386719 C 87.203125 66.695312 87.4375 66.980469 87.699219 67.238281 C 87.960938 67.5 88.246094 67.734375 88.554688 67.9375 C 88.863281 68.140625 89.1875 68.316406 89.53125 68.457031 C 89.871094 68.597656 90.222656 68.703125 90.585938 68.773438 C 90.949219 68.84375 91.316406 68.882812 91.6875 68.878906 Z M 91.6875 68.878906 " fill-opacity="0.78" fill-rule="evenodd"/><path fill="#fbad17" d="M 225.300781 126.179688 C 225.300781 127.714844 225.226562 129.25 225.074219 130.78125 C 224.925781 132.308594 224.699219 133.828125 224.398438 135.335938 C 224.101562 136.84375 223.726562 138.332031 223.28125 139.804688 C 222.832031 141.273438 222.316406 142.71875 221.726562 144.140625 C 221.136719 145.558594 220.480469 146.949219 219.757812 148.304688 C 219.03125 149.660156 218.242188 150.976562 217.386719 152.253906 C 216.53125 153.53125 215.617188 154.765625 214.640625 155.953125 C 213.664062 157.140625 212.632812 158.28125 211.542969 159.367188 C 210.457031 160.453125 209.320312 161.484375 208.128906 162.460938 C 206.941406 163.433594 205.707031 164.347656 204.425781 165.203125 C 203.148438 166.058594 201.828125 166.847656 200.472656 167.570312 C 199.117188 168.296875 197.726562 168.953125 196.304688 169.539062 C 194.886719 170.128906 193.4375 170.644531 191.964844 171.09375 C 190.496094 171.539062 189.003906 171.910156 187.496094 172.210938 C 185.984375 172.511719 184.464844 172.734375 182.933594 172.886719 C 181.40625 173.039062 179.871094 173.113281 178.332031 173.113281 C 176.792969 173.113281 175.257812 173.039062 173.726562 172.886719 C 172.195312 172.734375 170.675781 172.511719 169.167969 172.210938 C 167.660156 171.910156 166.167969 171.539062 164.695312 171.09375 C 163.222656 170.644531 161.777344 170.128906 160.355469 169.539062 C 158.933594 168.953125 157.546875 168.296875 156.1875 167.570312 C 154.832031 166.847656 153.515625 166.058594 152.234375 165.203125 C 150.957031 164.347656 149.722656 163.433594 148.535156 162.460938 C 147.34375 161.484375 146.207031 160.453125 145.117188 159.367188 C 144.03125 158.28125 143 157.140625 142.023438 155.953125 C 141.046875 154.765625 140.132812 153.53125 139.277344 152.253906 C 138.421875 150.976562 137.632812 149.660156 136.90625 148.304688 C 136.179688 146.949219 135.523438 145.558594 134.9375 144.140625 C 134.347656 142.71875 133.828125 141.273438 133.382812 139.804688 C 132.9375 138.332031 132.5625 136.84375 132.261719 135.335938 C 131.960938 133.828125 131.738281 132.308594 131.585938 130.78125 C 131.4375 129.25 131.359375 127.714844 131.359375 126.179688 C 131.359375 124.640625 131.4375 123.109375 131.585938 121.578125 C 131.738281 120.050781 131.960938 118.53125 132.261719 117.023438 C 132.5625 115.515625 132.9375 114.027344 133.382812 112.554688 C 133.828125 111.085938 134.347656 109.640625 134.9375 108.21875 C 135.523438 106.796875 136.179688 105.410156 136.90625 104.054688 C 137.632812 102.699219 138.421875 101.382812 139.277344 100.105469 C 140.132812 98.828125 141.046875 97.59375 142.023438 96.40625 C 143 95.21875 144.03125 94.078125 145.117188 92.992188 C 146.207031 91.90625 147.34375 90.875 148.535156 89.898438 C 149.722656 88.925781 150.957031 88.011719 152.234375 87.15625 C 153.515625 86.300781 154.832031 85.511719 156.1875 84.789062 C 157.546875 84.0625 158.933594 83.40625 160.355469 82.820312 C 161.777344 82.230469 163.222656 81.714844 164.695312 81.265625 C 166.167969 80.820312 167.660156 80.449219 169.167969 80.148438 C 170.675781 79.847656 172.195312 79.621094 173.726562 79.472656 C 175.257812 79.320312 176.792969 79.246094 178.332031 79.246094 C 179.871094 79.246094 181.40625 79.320312 182.933594 79.472656 C 184.464844 79.621094 185.984375 79.847656 187.496094 80.148438 C 189.003906 80.449219 190.496094 80.820312 191.964844 81.265625 C 193.4375 81.714844 194.886719 82.230469 196.304688 82.820312 C 197.726562 83.40625 199.117188 84.0625 200.472656 84.789062 C 201.828125 85.511719 203.148438 86.300781 204.425781 87.15625 C 205.707031 88.011719 206.941406 88.925781 208.128906 89.898438 C 209.320312 90.875 210.457031 91.90625 211.542969 92.992188 C 212.632812 94.078125 213.664062 95.21875 214.640625 96.40625 C 215.617188 97.59375 216.53125 98.828125 217.386719 100.105469 C 218.242188 101.382812 219.03125 102.699219 219.757812 104.054688 C 220.480469 105.410156 221.136719 106.796875 221.726562 108.21875 C 222.316406 109.640625 222.832031 111.085938 223.28125 112.554688 C 223.726562 114.027344 224.101562 115.515625 224.398438 117.023438 C 224.699219 118.53125 224.925781 120.050781 225.074219 121.578125 C 225.226562 123.109375 225.300781 124.640625 225.300781 126.179688 Z M 225.300781 126.179688 " fill-opacity="0.78" fill-rule="nonzero"/><path fill="#ec008b" d="M 204.277344 55.140625 C 226.789062 59.777344 245.644531 71.042969 256.769531 87.25 C 256.671875 87.9375 256.554688 88.617188 256.417969 89.296875 C 256.28125 89.976562 256.121094 90.652344 255.941406 91.320312 C 255.761719 91.988281 255.5625 92.652344 255.339844 93.308594 C 255.121094 93.964844 254.878906 94.613281 254.621094 95.257812 C 254.359375 95.898438 254.078125 96.53125 253.777344 97.15625 C 253.476562 97.78125 253.15625 98.394531 252.820312 99 C 252.480469 99.605469 252.125 100.199219 251.75 100.78125 C 251.375 101.363281 250.980469 101.933594 250.570312 102.492188 C 250.160156 103.050781 249.734375 103.597656 249.289062 104.128906 C 248.84375 104.660156 248.382812 105.175781 247.90625 105.679688 C 247.429688 106.183594 246.941406 106.671875 246.433594 107.144531 C 245.925781 107.617188 245.40625 108.074219 244.871094 108.515625 C 244.335938 108.957031 243.785156 109.378906 243.226562 109.785156 C 242.664062 110.191406 242.089844 110.582031 241.503906 110.953125 C 240.921875 111.324219 240.324219 111.675781 239.714844 112.011719 C 239.109375 112.347656 238.492188 112.660156 237.867188 112.957031 C 237.238281 113.253906 236.601562 113.53125 235.960938 113.785156 C 235.316406 114.042969 234.664062 114.28125 234.003906 114.496094 C 233.347656 114.710938 232.683594 114.910156 232.011719 115.085938 C 231.339844 115.257812 230.664062 115.414062 229.984375 115.546875 C 229.304688 115.679688 228.621094 115.792969 227.933594 115.882812 C 227.246094 115.976562 226.554688 116.046875 225.863281 116.09375 C 225.171875 116.140625 224.480469 116.167969 223.789062 116.175781 C 223.09375 116.179688 222.402344 116.164062 221.707031 116.128906 C 221.015625 116.089844 220.324219 116.03125 219.636719 115.949219 C 218.949219 115.871094 218.261719 115.769531 217.582031 115.648438 C 216.898438 115.523438 216.21875 115.382812 215.546875 115.214844 C 214.875 115.050781 214.207031 114.867188 213.542969 114.660156 C 212.882812 114.457031 212.226562 114.230469 211.578125 113.984375 C 210.929688 113.738281 210.289062 113.46875 209.660156 113.183594 C 209.027344 112.898438 208.40625 112.59375 207.792969 112.269531 C 207.179688 111.945312 206.578125 111.601562 205.988281 111.238281 C 205.394531 110.878906 204.816406 110.5 204.25 110.101562 C 203.679688 109.703125 203.125 109.289062 202.582031 108.855469 C 202.042969 108.425781 201.511719 107.976562 201 107.511719 C 200.484375 107.046875 199.984375 106.566406 199.5 106.070312 C 199.015625 105.574219 198.546875 105.066406 198.09375 104.539062 C 197.640625 104.015625 197.207031 103.476562 196.785156 102.925781 C 196.367188 102.375 195.964844 101.808594 195.582031 101.234375 C 195.195312 100.65625 194.828125 100.070312 194.480469 99.46875 C 194.132812 98.871094 193.804688 98.261719 193.492188 97.640625 C 193.183594 97.023438 192.894531 96.394531 192.621094 95.757812 C 192.351562 95.121094 192.097656 94.472656 191.867188 93.820312 C 191.636719 93.167969 191.425781 92.507812 191.234375 91.84375 C 191.042969 91.175781 190.875 90.503906 190.726562 89.828125 C 190.578125 89.152344 190.449219 88.46875 190.34375 87.785156 C 190.238281 87.101562 190.152344 86.414062 190.085938 85.722656 C 190.023438 85.035156 189.980469 84.34375 189.960938 83.652344 C 189.9375 82.957031 189.941406 82.265625 189.960938 81.574219 C 189.984375 80.882812 190.027344 80.191406 190.089844 79.5 C 190.15625 78.808594 190.242188 78.125 190.347656 77.4375 C 190.457031 76.753906 190.585938 76.074219 190.734375 75.398438 C 190.882812 74.722656 191.054688 74.050781 191.246094 73.382812 C 191.4375 72.71875 191.648438 72.058594 191.878906 71.40625 C 192.113281 70.753906 192.363281 70.109375 192.636719 69.46875 C 192.910156 68.832031 193.199219 68.203125 193.511719 67.585938 C 193.820312 66.964844 194.152344 66.359375 194.5 65.757812 C 194.847656 65.160156 195.214844 64.574219 195.601562 63.996094 C 195.988281 63.421875 196.390625 62.855469 196.808594 62.304688 C 197.230469 61.753906 197.667969 61.21875 198.121094 60.691406 C 198.574219 60.167969 199.042969 59.660156 199.527344 59.164062 C 200.011719 58.667969 200.511719 58.191406 201.027344 57.726562 C 201.542969 57.261719 202.070312 56.8125 202.613281 56.382812 C 203.15625 55.949219 203.710938 55.535156 204.277344 55.140625 Z M 204.277344 55.140625 " fill-opacity="0.78" fill-rule="evenodd"/><path fill="#56ba48" d="M 162.515625 105.609375 C 163.4375 105.613281 164.355469 105.566406 165.273438 105.476562 C 166.191406 105.386719 167.101562 105.253906 168.003906 105.074219 C 168.910156 104.894531 169.800781 104.671875 170.683594 104.402344 C 171.566406 104.136719 172.433594 103.828125 173.285156 103.476562 C 174.132812 103.121094 174.964844 102.730469 175.78125 102.296875 C 176.59375 101.863281 177.382812 101.390625 178.148438 100.878906 C 178.914062 100.367188 179.652344 99.820312 180.367188 99.234375 C 181.078125 98.652344 181.761719 98.035156 182.410156 97.382812 C 183.0625 96.734375 183.683594 96.050781 184.265625 95.339844 C 184.851562 94.628906 185.398438 93.890625 185.910156 93.125 C 186.421875 92.359375 186.898438 91.570312 187.332031 90.757812 C 187.765625 89.945312 188.160156 89.117188 188.511719 88.265625 C 188.867188 87.414062 189.175781 86.550781 189.441406 85.667969 C 189.710938 84.789062 189.933594 83.894531 190.113281 82.992188 C 190.292969 82.089844 190.429688 81.179688 190.519531 80.265625 C 190.609375 79.347656 190.65625 78.429688 190.65625 77.507812 C 190.65625 76.589844 190.613281 75.667969 190.519531 74.753906 C 190.429688 73.835938 190.296875 72.925781 190.117188 72.023438 C 189.9375 71.121094 189.714844 70.230469 189.445312 69.347656 C 189.179688 68.46875 188.871094 67.601562 188.515625 66.75 C 188.164062 65.898438 187.769531 65.070312 187.335938 64.257812 C 186.902344 63.445312 186.429688 62.65625 185.917969 61.890625 C 185.40625 61.125 184.859375 60.386719 184.273438 59.675781 C 183.6875 58.960938 183.070312 58.28125 182.421875 57.628906 C 181.769531 56.980469 181.085938 56.363281 180.375 55.777344 C 179.664062 55.191406 178.921875 54.644531 178.15625 54.132812 C 177.390625 53.621094 176.601562 53.148438 175.789062 52.714844 C 174.976562 52.28125 174.144531 51.886719 173.292969 51.535156 C 172.441406 51.183594 171.578125 50.871094 170.695312 50.605469 C 169.8125 50.339844 168.921875 50.113281 168.015625 49.933594 C 167.113281 49.753906 166.203125 49.621094 165.285156 49.53125 C 164.367188 49.441406 163.449219 49.394531 162.527344 49.394531 C 161.605469 49.394531 160.6875 49.4375 159.769531 49.53125 C 158.855469 49.621094 157.945312 49.753906 157.039062 49.933594 C 156.136719 50.113281 155.242188 50.335938 154.363281 50.605469 C 153.480469 50.871094 152.613281 51.179688 151.761719 51.53125 C 150.910156 51.886719 150.078125 52.277344 149.265625 52.710938 C 148.453125 53.144531 147.664062 53.617188 146.898438 54.128906 C 146.132812 54.640625 145.394531 55.191406 144.679688 55.773438 C 143.96875 56.359375 143.285156 56.976562 142.632812 57.625 C 141.984375 58.277344 141.363281 58.957031 140.78125 59.671875 C 140.195312 60.382812 139.648438 61.121094 139.136719 61.886719 C 138.625 62.652344 138.152344 63.441406 137.714844 64.25 C 137.28125 65.0625 136.886719 65.894531 136.535156 66.746094 C 136.183594 67.597656 135.875 68.460938 135.605469 69.34375 C 135.339844 70.222656 135.113281 71.117188 134.933594 72.019531 C 134.753906 72.921875 134.621094 73.832031 134.53125 74.746094 C 134.441406 75.664062 134.394531 76.582031 134.394531 77.503906 C 134.394531 78.421875 134.441406 79.339844 134.535156 80.253906 C 134.625 81.171875 134.761719 82.078125 134.941406 82.980469 C 135.125 83.882812 135.347656 84.773438 135.617188 85.65625 C 135.886719 86.535156 136.195312 87.398438 136.546875 88.25 C 136.902344 89.097656 137.296875 89.929688 137.730469 90.742188 C 138.164062 91.550781 138.636719 92.339844 139.148438 93.105469 C 139.660156 93.867188 140.210938 94.605469 140.792969 95.316406 C 141.378906 96.027344 141.996094 96.710938 142.644531 97.359375 C 143.296875 98.011719 143.976562 98.628906 144.6875 99.210938 C 145.402344 99.796875 146.140625 100.34375 146.90625 100.855469 C 147.667969 101.367188 148.457031 101.839844 149.269531 102.273438 C 150.082031 102.707031 150.910156 103.101562 151.761719 103.457031 C 152.613281 103.808594 153.476562 104.121094 154.359375 104.386719 C 155.238281 104.65625 156.128906 104.878906 157.035156 105.0625 C 157.9375 105.242188 158.84375 105.378906 159.761719 105.46875 C 160.679688 105.5625 161.597656 105.609375 162.515625 105.609375 Z M 162.515625 105.609375 " fill-opacity="0.78" fill-rule="evenodd"/><g fill="#0b0b0b" fill-opacity="1"><g transform="translate(88.129567, 340.796111)"><g><path d="M 5 -42.140625 L 14.75 -42.140625 L 14.75 -7.953125 L 35.875 -7.953125 L 35.875 0 L 5 0 Z M 5 -42.140625 "/></g></g></g><g fill="#0b0b0b" fill-opacity="1"><g transform="translate(124.489847, 340.796111)"><g><path d="M 17.40625 -32.875 C 22.414062 -32.875 26.265625 -31.675781 28.953125 -29.28125 C 31.640625 -26.894531 32.984375 -23.296875 32.984375 -18.484375 L 32.984375 0 L 24.203125 0 L 24.203125 -4.03125 C 22.429688 -1.019531 19.140625 0.484375 14.328125 0.484375 C 11.835938 0.484375 9.679688 0.0625 7.859375 -0.78125 C 6.035156 -1.625 4.640625 -2.785156 3.671875 -4.265625 C 2.710938 -5.753906 2.234375 -7.441406 2.234375 -9.328125 C 2.234375 -12.335938 3.363281 -14.707031 5.625 -16.4375 C 7.894531 -18.164062 11.398438 -19.03125 16.140625 -19.03125 L 23.59375 -19.03125 C 23.59375 -21.070312 22.96875 -22.644531 21.71875 -23.75 C 20.476562 -24.851562 18.617188 -25.40625 16.140625 -25.40625 C 14.410156 -25.40625 12.710938 -25.132812 11.046875 -24.59375 C 9.378906 -24.050781 7.960938 -23.316406 6.796875 -22.390625 L 3.4375 -28.953125 C 5.195312 -30.203125 7.3125 -31.164062 9.78125 -31.84375 C 12.25 -32.53125 14.789062 -32.875 17.40625 -32.875 Z M 16.671875 -5.84375 C 18.273438 -5.84375 19.695312 -6.210938 20.9375 -6.953125 C 22.1875 -7.691406 23.070312 -8.785156 23.59375 -10.234375 L 23.59375 -13.546875 L 17.15625 -13.546875 C 13.300781 -13.546875 11.375 -12.28125 11.375 -9.75 C 11.375 -8.550781 11.84375 -7.597656 12.78125 -6.890625 C 13.726562 -6.191406 15.023438 -5.84375 16.671875 -5.84375 Z M 16.671875 -5.84375 "/></g></g></g><g fill="#0b0b0b" fill-opacity="1"><g transform="translate(161.63272, 340.796111)"><g><path d="M 37.75 -32.390625 L 37.75 -5.421875 C 37.75 0.515625 36.203125 4.925781 33.109375 7.8125 C 30.015625 10.707031 25.5 12.15625 19.5625 12.15625 C 16.4375 12.15625 13.46875 11.773438 10.65625 11.015625 C 7.84375 10.253906 5.515625 9.148438 3.671875 7.703125 L 7.40625 0.96875 C 8.769531 2.09375 10.492188 2.984375 12.578125 3.640625 C 14.671875 4.304688 16.757812 4.640625 18.84375 4.640625 C 22.09375 4.640625 24.488281 3.90625 26.03125 2.4375 C 27.582031 0.96875 28.359375 -1.25 28.359375 -4.21875 L 28.359375 -5.59375 C 25.910156 -2.90625 22.5 -1.5625 18.125 -1.5625 C 15.15625 -1.5625 12.4375 -2.210938 9.96875 -3.515625 C 7.5 -4.828125 5.539062 -6.664062 4.09375 -9.03125 C 2.644531 -11.394531 1.921875 -14.125 1.921875 -17.21875 C 1.921875 -20.3125 2.644531 -23.039062 4.09375 -25.40625 C 5.539062 -27.769531 7.5 -29.601562 9.96875 -30.90625 C 12.4375 -32.21875 15.15625 -32.875 18.125 -32.875 C 22.820312 -32.875 26.394531 -31.328125 28.84375 -28.234375 L 28.84375 -32.390625 Z M 19.984375 -9.265625 C 22.472656 -9.265625 24.507812 -10 26.09375 -11.46875 C 27.675781 -12.9375 28.46875 -14.851562 28.46875 -17.21875 C 28.46875 -19.582031 27.675781 -21.5 26.09375 -22.96875 C 24.507812 -24.4375 22.472656 -25.171875 19.984375 -25.171875 C 17.492188 -25.171875 15.445312 -24.4375 13.84375 -22.96875 C 12.238281 -21.5 11.4375 -19.582031 11.4375 -17.21875 C 11.4375 -14.851562 12.238281 -12.9375 13.84375 -11.46875 C 15.445312 -10 17.492188 -9.265625 19.984375 -9.265625 Z M 19.984375 -9.265625 "/></g></g></g><g fill="#0b0b0b" fill-opacity="1"><g transform="translate(203.772118, 340.796111)"><g><path d="M 17.40625 -32.875 C 22.414062 -32.875 26.265625 -31.675781 28.953125 -29.28125 C 31.640625 -26.894531 32.984375 -23.296875 32.984375 -18.484375 L 32.984375 0 L 24.203125 0 L 24.203125 -4.03125 C 22.429688 -1.019531 19.140625 0.484375 14.328125 0.484375 C 11.835938 0.484375 9.679688 0.0625 7.859375 -0.78125 C 6.035156 -1.625 4.640625 -2.785156 3.671875 -4.265625 C 2.710938 -5.753906 2.234375 -7.441406 2.234375 -9.328125 C 2.234375 -12.335938 3.363281 -14.707031 5.625 -16.4375 C 7.894531 -18.164062 11.398438 -19.03125 16.140625 -19.03125 L 23.59375 -19.03125 C 23.59375 -21.070312 22.96875 -22.644531 21.71875 -23.75 C 20.476562 -24.851562 18.617188 -25.40625 16.140625 -25.40625 C 14.410156 -25.40625 12.710938 -25.132812 11.046875 -24.59375 C 9.378906 -24.050781 7.960938 -23.316406 6.796875 -22.390625 L 3.4375 -28.953125 C 5.195312 -30.203125 7.3125 -31.164062 9.78125 -31.84375 C 12.25 -32.53125 14.789062 -32.875 17.40625 -32.875 Z M 16.671875 -5.84375 C 18.273438 -5.84375 19.695312 -6.210938 20.9375 -6.953125 C 22.1875 -7.691406 23.070312 -8.785156 23.59375 -10.234375 L 23.59375 -13.546875 L 17.15625 -13.546875 C 13.300781 -13.546875 11.375 -12.28125 11.375 -9.75 C 11.375 -8.550781 11.84375 -7.597656 12.78125 -6.890625 C 13.726562 -6.191406 15.023438 -5.84375 16.671875 -5.84375 Z M 16.671875 -5.84375 "/></g></g></g><g fill="#0b0b0b" fill-opacity="1"><g transform="translate(240.914991, 340.796111)"><g><path d="M 4.328125 -44.671875 L 13.71875 -44.671875 L 13.71875 0 L 4.328125 0 Z M 4.328125 -44.671875 "/></g></g></g><g fill="#0b0b0b" fill-opacity="1"><g transform="translate(259.034935, 340.796111)"><g><path d="M 25.21875 -1.5625 C 24.300781 -0.882812 23.171875 -0.375 21.828125 -0.03125 C 20.484375 0.3125 19.066406 0.484375 17.578125 0.484375 C 13.722656 0.484375 10.742188 -0.5 8.640625 -2.46875 C 6.535156 -4.4375 5.484375 -7.328125 5.484375 -11.140625 L 5.484375 -24.4375 L 0.484375 -24.4375 L 0.484375 -31.671875 L 5.484375 -31.671875 L 5.484375 -39.546875 L 14.875 -39.546875 L 14.875 -31.671875 L 22.9375 -31.671875 L 22.9375 -24.4375 L 14.875 -24.4375 L 14.875 -11.265625 C 14.875 -9.898438 15.222656 -8.84375 15.921875 -8.09375 C 16.628906 -7.351562 17.625 -6.984375 18.90625 -6.984375 C 20.382812 -6.984375 21.648438 -7.382812 22.703125 -8.1875 Z M 25.21875 -1.5625 "/></g></g></g></svg>